<?xml version="1.0" standalone="no"?>
<!DOCTYPE svg PUBLIC "-//W3C//DTD SVG 20010904//EN"
 "http://www.w3.org/TR/2001/REC-SVG-20010904/DTD/svg10.dtd">
<svg version="1.0" xmlns="http://www.w3.org/2000/svg"
 width="500.000000pt" height="500.000000pt" viewBox="0 0 500.000000 500.000000"
 preserveAspectRatio="xMidYMid meet">

<g transform="translate(0.000000,500.000000) scale(0.100000,-0.100000)"
fill="#000000" stroke="none">
<path d="M2290 4573 c-14 -2 -74 -10 -134 -19 -562 -79 -1092 -379 -1453 -823
-71 -88 -143 -186 -143 -196 0 -4 -11 -21 -24 -38 -36 -48 -158 -300 -200
-412 -45 -122 -91 -322 -117 -510 -42 -294 22 -749 148 -1055 79 -192 198
-398 308 -535 158 -195 205 -241 459 -447 100 -81 376 -227 561 -296 180 -67
319 -99 545 -127 112 -14 460 -22 478 -11 4 2 57 9 117 16 193 20 376 65 553
136 250 99 413 194 610 352 196 157 374 354 492 541 61 98 182 340 209 421
100 288 147 573 138 829 -8 223 -41 417 -109 631 -40 127 -180 411 -265 537
-177 263 -441 516 -698 669 -405 241 -789 346 -1255 343 -107 -1 -206 -3 -220
-6z m511 -48 c352 -49 624 -142 922 -313 262 -151 540 -416 717 -683 202 -305
314 -632 351 -1025 25 -267 -26 -645 -121 -899 -96 -256 -261 -527 -433 -712
-22 -23 -46 -52 -54 -63 -20 -28 -200 -182 -297 -254 -192 -142 -455 -270
-707 -345 -165 -48 -314 -75 -517 -92 -162 -13 -330 -3 -532 32 -239 42 -390
90 -620 198 -115 54 -347 192 -370 220 -3 3 -39 33 -80 66 -91 72 -227 206
-301 295 -30 36 -57 67 -60 70 -21 17 -145 212 -192 300 -176 333 -256 652
-257 1017 0 230 32 445 97 648 86 269 223 516 409 740 207 248 435 426 739
575 180 88 287 128 455 170 106 26 160 36 310 59 95 15 427 12 541 -4z"/>
<path d="M2372 3858 c-285 -34 -534 -253 -609 -538 -24 -88 -23 -261 2 -355
39 -153 129 -293 241 -379 35 -27 61 -52 59 -56 -3 -5 -34 -18 -68 -29 -35
-12 -97 -38 -139 -59 -435 -219 -721 -647 -753 -1128 -8 -114 5 -159 50 -170
65 -16 105 27 105 113 0 120 50 326 111 462 79 174 251 379 412 489 81 56 208
120 305 153 82 29 273 59 371 59 229 0 476 -75 677 -205 81 -53 282 -256 329
-333 l38 -63 17 44 c10 25 29 60 44 79 14 19 26 39 26 45 0 15 -114 150 -179
212 -131 125 -347 260 -488 306 -29 9 -55 20 -58 25 -3 4 24 31 59 59 102 82
174 187 223 326 25 73 27 92 28 225 0 137 -2 150 -32 233 -68 192 -185 326
-368 421 -103 53 -269 79 -403 64z m188 -168 c41 -6 95 -24 149 -51 423 -210
411 -804 -20 -1006 -48 -23 -178 -53 -228 -53 -62 0 -179 31 -251 67 -159 79
-278 244 -299 416 -23 187 36 353 169 481 131 126 287 174 480 146z"/>
<path d="M3693 1846 c-27 -23 -28 -28 -31 -140 l-4 -116 -94 0 c-60 0 -107 -5
-129 -15 -60 -24 -69 -95 -18 -135 22 -17 41 -20 134 -20 l109 0 1 -77 c0
-107 13 -174 35 -190 26 -19 78 -16 105 6 22 18 24 27 27 140 l4 121 108 0
c102 0 110 2 139 26 33 27 39 60 20 96 -18 33 -70 48 -174 48 l-95 0 0 111 c0
109 0 111 -29 140 -36 35 -70 37 -108 5z"/>
</g>
</svg>
